<svg xmlns="http://www.w3.org/2000/svg" width="500" height="500" viewBox="0 0 500 500">
<g>
<path d="M 301.10 239.45 C296.23,241.97 291.00,241.21 291.00,237.98 C291.00,235.32 292.75,234.60 294.62,236.48 C296.64,238.49 298.41,237.98 298.81,235.27 C299.25,232.25 295.42,230.00 289.82,230.00 C278.61,230.00 276.48,226.33 272.14,199.50 C268.94,179.74 264.26,170.44 254.52,164.50 C251.81,162.85 247.90,159.88 245.82,157.89 C243.75,155.91 241.87,154.46 241.66,154.68 C241.44,154.89 241.50,153.85 241.78,152.37 C242.20,150.18 241.99,149.79 240.66,150.30 C239.36,150.80 239.22,150.57 239.96,149.21 C240.47,148.27 241.16,145.84 241.48,143.81 C241.80,141.78 243.51,137.96 245.28,135.32 C248.28,130.84 248.87,130.47 253.96,129.74 C260.18,128.85 263.55,127.00 264.52,123.94 C265.03,122.31 264.37,121.06 261.68,118.60 C255.94,113.34 255.77,106.65 261.11,95.56 C263.65,90.26 263.57,84.00 260.91,80.61 C256.55,75.07 248.68,72.80 241.25,74.93 C238.25,75.79 238.08,75.72 239.03,73.95 C239.59,72.90 240.96,71.56 242.07,70.96 C243.18,70.37 244.51,68.80 245.01,67.48 C245.55,66.06 247.99,64.03 250.93,62.54 C258.30,58.80 268.26,58.94 276.63,62.90 C280.00,64.50 283.05,66.27 283.40,66.84 C283.76,67.42 284.51,70.39 285.08,73.46 C285.65,76.53 287.49,81.27 289.19,83.99 C292.01,88.53 292.32,89.89 292.88,100.39 C293.40,109.91 293.86,112.32 295.64,114.73 C305.37,127.88 306.12,137.15 298.69,152.47 C293.97,162.21 293.77,163.00 295.47,165.59 C297.48,168.67 304.33,170.80 306.47,169.03 C308.53,167.31 308.41,163.33 306.26,162.12 C303.67,160.68 305.62,159.48 308.77,160.58 C310.91,161.33 311.57,162.27 311.83,164.94 C312.53,172.29 307.75,175.68 298.08,174.67 L 292.25 174.06 L 291.78 178.92 C291.50,181.80 290.44,184.90 289.16,186.53 C287.97,188.04 287.00,189.63 287.00,190.07 C287.00,190.52 288.80,192.96 291.00,195.50 C295.37,200.54 295.81,202.40 293.44,205.78 C291.56,208.46 287.25,208.72 285.44,206.25 C283.61,203.74 282.48,205.48 282.60,210.66 C282.68,214.43 283.28,215.75 286.28,218.75 C288.26,220.72 292.94,223.95 296.68,225.92 C303.31,229.40 303.51,229.62 303.80,233.70 C304.08,237.48 303.82,238.04 301.10,239.45 ZM 286.10 205.09 C286.87,205.57 288.09,205.98 288.82,205.98 C290.80,206.01 289.81,201.58 287.75,201.19 C285.53,200.76 284.21,203.89 286.10,205.09 Z" fill="rgb(198,152,69)"/>
<path d="M 239.97 149.20 C239.97,149.20 239.96,149.21 239.96,149.21 C239.22,150.57 239.36,150.80 240.66,150.30 C241.99,149.79 242.20,150.18 241.78,152.37 C241.59,153.39 241.50,154.19 241.53,154.53 L 236.59 158.55 C224.66,168.27 220.00,177.24 220.00,190.43 C220.01,198.01 225.18,225.31 227.04,227.55 C228.52,229.33 238.10,231.26 241.39,230.44 C244.46,229.67 244.62,230.46 242.20,234.45 L 240.41 237.40 L 223.95 237.68 C214.90,237.83 205.04,237.51 202.03,236.97 C193.75,235.48 181.73,229.43 176.97,224.35 C174.73,221.96 172.01,220.00 170.93,220.00 C167.73,220.00 160.65,216.14 158.50,213.22 C154.14,207.29 157.27,194.47 165.17,185.88 C167.00,183.90 173.07,177.15 178.65,170.88 C184.23,164.62 190.66,158.15 192.95,156.50 C195.23,154.85 198.71,152.26 200.69,150.75 C202.66,149.24 204.70,148.00 205.21,148.00 C207.12,148.00 205.39,151.53 202.90,152.72 C201.48,153.40 196.42,157.62 191.65,162.09 C179.61,173.38 174.76,182.37 171.96,198.59 C170.89,204.82 170.95,206.33 172.48,210.94 L 174.22 216.19 L 177.08 211.88 C179.77,207.82 184.98,202.89 200.17,190.00 C206.58,184.57 216.06,172.85 220.27,165.15 C221.82,162.34 224.49,159.95 229.47,156.93 C235.45,153.30 238.55,151.10 239.97,149.20 ZM 230.34 331.71 C228.36,333.52 226.22,335.00 225.57,335.00 C222.89,335.00 215.00,328.85 209.44,322.42 C206.17,318.64 200.69,312.58 197.25,308.94 C188.35,299.54 188.97,298.51 199.66,304.95 C208.17,310.08 214.56,311.43 223.58,309.99 C234.97,308.17 252.80,299.39 260.14,292.00 C263.33,288.79 267.00,281.85 267.00,279.04 C267.00,275.91 268.93,276.59 273.18,281.20 C277.48,285.85 284.66,299.28 283.12,299.79 C282.59,299.97 280.33,299.19 278.11,298.06 C272.12,295.00 265.82,295.32 259.85,299.00 C257.16,300.65 254.73,302.00 254.44,302.00 C254.15,302.00 250.65,304.20 246.67,306.89 C239.65,311.63 237.00,314.96 237.00,319.08 C237.00,322.66 233.99,328.37 230.34,331.71 ZM 256.10 129.37 C255.43,129.51 254.71,129.63 253.96,129.74 C248.87,130.47 248.28,130.84 245.28,135.32 C243.51,137.96 241.80,141.78 241.48,143.81 C241.36,144.56 241.19,145.36 241.00,146.12 C241.09,142.97 243.53,137.31 246.47,133.45 C248.46,130.85 249.79,130.19 254.07,129.68 C254.78,129.59 255.45,129.49 256.10,129.37 ZM 262.27 126.98 C263.39,126.13 264.15,125.12 264.52,123.94 C264.14,125.13 263.40,126.14 262.27,126.98 Z" fill="rgb(198,76,46)"/>
<path d="M 239.93 445.40 C228.80,448.79 220.37,448.86 213.50,445.62 C207.04,442.58 201.26,436.67 199.94,431.79 C198.91,427.97 198.99,427.10 202.01,406.60 C202.58,402.81 202.79,399.46 202.50,399.17 C201.06,397.73 180.00,404.59 168.00,410.39 C157.48,415.49 153.03,416.56 138.33,417.57 C126.45,418.39 122.41,417.37 118.10,412.46 C112.57,406.17 112.96,400.30 119.51,391.00 C121.25,388.52 124.17,383.80 126.01,380.50 C133.09,367.74 141.28,356.82 152.47,345.21 C169.67,327.38 174.71,321.92 182.05,313.16 C189.12,304.72 189.94,303.29 190.56,298.40 C191.80,288.42 189.38,273.80 184.36,261.00 C182.96,257.42 181.12,252.48 180.28,250.01 C179.45,247.54 177.54,242.82 176.05,239.51 C174.57,236.21 172.05,230.28 170.45,226.34 C168.01,220.32 167.00,218.94 164.03,217.59 C161.74,216.55 160.01,215.23 158.78,213.57 C161.21,216.44 167.86,220.00 170.93,220.00 C172.01,220.00 174.73,221.96 176.97,224.35 C181.73,229.43 193.75,235.48 202.03,236.97 C205.04,237.51 214.90,237.83 223.95,237.68 L 240.41 237.40 L 242.20 234.45 L 242.22 234.42 C241.98,234.89 241.73,235.37 241.46,235.86 C236.83,244.14 237.28,255.83 242.40,260.22 C243.55,261.21 248.94,265.01 254.36,268.65 C264.22,275.28 264.22,275.29 263.74,278.94 C263.47,280.95 262.33,284.48 261.21,286.79 C259.23,290.89 259.33,291.74 261.62,290.23 C261.66,290.21 261.70,290.18 261.74,290.14 C261.21,290.84 260.67,291.47 260.14,292.00 C252.80,299.39 234.97,308.17 223.58,309.99 C214.56,311.43 208.17,310.08 199.66,304.95 C188.97,298.51 188.35,299.54 197.25,308.94 C200.69,312.58 206.17,318.64 209.44,322.42 C215.00,328.85 222.89,335.00 225.57,335.00 C226.14,335.00 227.88,333.85 229.64,332.33 C225.63,336.73 223.02,340.59 220.06,346.29 C210.01,365.62 209.96,365.67 194.01,376.09 C175.90,387.93 171.91,391.06 167.90,396.61 C166.03,399.20 162.87,403.05 160.87,405.16 C158.87,407.27 157.72,409.00 158.31,409.00 C158.90,409.00 163.23,405.00 167.94,400.10 C176.71,390.99 180.65,387.69 192.00,380.00 C197.42,376.32 199.45,375.52 204.32,375.17 C209.12,374.82 210.31,374.37 211.00,372.62 C211.46,371.46 213.04,367.35 214.51,363.50 C218.58,352.88 227.66,337.10 232.96,331.47 C240.99,322.94 240.70,321.07 232.66,329.17 C235.19,325.92 237.00,321.86 237.00,319.08 C237.00,314.96 239.65,311.63 246.67,306.89 C250.65,304.20 254.15,302.00 254.44,302.00 C254.73,302.00 257.16,300.65 259.85,299.00 C265.82,295.32 272.12,295.00 278.11,298.06 C280.33,299.19 282.59,299.97 283.12,299.79 C283.62,299.63 283.20,298.08 282.25,295.92 C284.39,300.35 286.22,303.90 286.58,304.25 C290.42,308.05 282.18,291.19 274.43,279.38 C267.97,269.54 263.96,261.65 261.00,253.00 C258.42,245.46 250.56,228.09 247.42,223.00 C244.91,218.94 241.00,215.17 241.00,216.82 C241.00,217.44 241.86,219.37 242.91,221.09 C244.54,223.78 244.84,226.87 243.79,230.48 C243.55,230.06 242.75,230.10 241.39,230.44 C238.10,231.26 228.52,229.33 227.04,227.55 C225.18,225.31 220.01,198.01 220.00,190.43 C220.00,177.24 224.66,168.27 236.59,158.55 L 241.53 154.53 C241.55,154.69 241.59,154.75 241.66,154.68 C241.87,154.46 243.75,155.91 245.82,157.89 C247.90,159.88 251.81,162.85 254.52,164.50 C264.26,170.44 268.94,179.74 272.14,199.50 C275.64,221.13 277.70,227.71 284.24,229.44 L 280.16 229.13 L 282.15 236.32 C283.24,240.27 286.74,248.90 289.93,255.50 C293.11,262.10 296.73,271.33 297.96,276.00 C299.19,280.67 300.58,285.62 301.05,287.00 C301.52,288.38 304.45,299.85 307.57,312.50 C310.69,325.15 314.17,337.49 315.31,339.91 C318.20,346.08 328.18,356.44 333.81,359.10 C338.51,361.32 346.87,369.38 346.96,371.77 C347.04,374.26 355.38,376.10 374.79,377.91 C382.98,378.67 386.35,380.07 384.45,381.92 C383.93,382.43 376.98,385.32 369.00,388.35 C335.94,400.89 315.37,409.72 301.00,417.56 C274.13,432.21 255.88,440.53 239.93,445.40 ZM 239.97 149.20 C238.55,151.10 235.45,153.30 229.47,156.93 C224.49,159.95 221.82,162.34 220.27,165.15 C216.06,172.85 206.58,184.57 200.17,190.00 C184.98,202.89 179.77,207.82 177.08,211.88 L 174.22 216.19 L 172.48 210.94 C170.95,206.33 170.89,204.82 171.96,198.59 C174.76,182.37 179.61,173.38 191.65,162.09 C196.42,157.62 201.48,153.40 202.90,152.72 C203.91,152.24 204.80,151.36 205.36,150.50 C204.78,151.47 203.85,152.40 202.37,153.70 C199.46,156.26 199.04,156.95 200.69,156.50 C202.75,155.94 202.83,156.10 201.94,159.19 C201.43,161.00 201.01,162.71 201.03,162.99 C201.05,163.27 201.93,162.47 202.98,161.21 C205.45,158.25 208.60,149.76 210.40,141.25 C212.51,131.22 213.57,129.00 216.23,129.02 C217.48,129.03 222.55,129.95 227.50,131.05 C236.79,133.12 242.30,132.96 245.64,130.52 C247.20,129.38 246.53,129.27 240.95,129.72 C228.25,130.74 209.37,124.71 206.94,118.86 C205.80,116.09 206.09,115.10 210.86,105.50 C214.42,98.34 217.02,94.41 219.26,92.84 C223.13,90.10 244.00,68.98 244.00,67.79 C244.00,65.39 209.89,75.43 184.85,85.19 C174.38,89.28 170.40,90.62 169.81,92.85 C169.46,94.17 170.29,95.79 171.66,98.48 C171.88,98.91 172.11,99.36 172.35,99.85 C177.48,110.05 182.84,116.91 190.45,122.96 C194.08,125.85 199.17,131.18 201.75,134.80 C205.76,140.42 206.44,142.05 206.35,145.85 C206.32,147.15 206.23,148.13 206.01,148.98 C206.08,148.40 205.85,148.00 205.21,148.00 C204.70,148.00 202.66,149.24 200.69,150.75 C198.71,152.26 195.23,154.85 192.95,156.50 C190.66,158.15 184.23,164.62 178.65,170.88 C177.49,172.18 176.32,173.50 175.16,174.79 C179.55,169.77 181.53,167.13 181.69,166.19 C182.11,163.74 179.12,156.13 175.92,151.50 C174.40,149.30 170.15,144.12 166.48,140.00 C155.69,127.87 152.77,122.13 142.44,92.73 C138.14,80.53 138.08,77.95 141.99,74.66 C146.03,71.26 151.04,69.94 184.10,63.51 C199.72,60.48 214.52,57.58 217.00,57.08 C219.48,56.57 225.10,55.64 229.50,55.01 C233.90,54.38 239.39,53.45 241.69,52.93 C248.29,51.46 252.20,51.81 258.58,54.44 C263.55,56.49 270.73,59.90 276.11,62.66 C267.85,58.94 258.15,58.88 250.93,62.54 C247.99,64.03 245.55,66.06 245.01,67.48 C244.51,68.80 243.18,70.37 242.07,70.96 C240.96,71.56 239.59,72.90 239.03,73.95 C238.08,75.72 238.25,75.79 241.25,74.93 C248.68,72.80 256.55,75.07 260.91,80.61 C263.57,84.00 263.65,90.26 261.11,95.56 C255.77,106.65 255.94,113.34 261.68,118.60 C264.37,121.06 265.03,122.31 264.52,123.94 C264.15,125.12 263.39,126.13 262.27,126.98 C260.84,128.03 258.80,128.82 256.10,129.37 C255.45,129.49 254.78,129.59 254.07,129.68 C249.79,130.19 248.46,130.85 246.47,133.45 C243.53,137.31 241.09,142.97 241.00,146.12 C240.68,147.41 240.29,148.60 239.97,149.20 ZM 249.01 409.10 C249.02,409.87 251.01,407.35 253.44,403.50 C255.86,399.65 258.22,395.93 258.68,395.23 C259.60,393.79 260.35,393.61 275.00,391.40 C291.65,388.88 309.68,384.58 313.50,382.23 C315.48,381.02 315.48,380.98 313.56,379.50 C310.44,377.09 308.53,377.31 279.50,383.49 C271.25,385.25 264.36,386.58 264.18,386.44 C264.01,386.31 265.36,383.67 267.18,380.58 C269.01,377.48 271.62,373.00 273.00,370.62 C277.17,363.38 277.49,363.16 282.26,364.16 C287.74,365.32 299.69,366.90 303.36,366.96 C305.70,366.99 306.08,366.68 305.48,365.25 C305.07,364.29 304.37,359.00 303.93,353.50 C302.83,340.09 299.20,327.23 293.13,315.29 C291.53,312.15 291.50,312.31 291.46,323.79 C291.42,338.29 290.22,341.51 278.60,358.45 C265.98,376.85 248.99,405.94 249.01,409.10 ZM 173.73 212.68 C174.23,213.94 174.66,212.89 175.12,209.26 C175.48,206.38 176.05,203.31 176.38,202.46 C176.71,201.60 176.59,201.14 176.11,201.43 C174.72,202.29 172.94,210.69 173.73,212.68 ZM 281.01 293.33 C278.83,289.06 275.56,283.78 273.18,281.20 C271.77,279.67 270.61,278.57 269.70,277.90 C270.47,278.42 271.44,279.20 272.65,280.25 C275.11,282.41 277.88,286.73 281.01,293.33 ZM 290.47 230.01 C294.18,230.13 297.04,231.26 298.23,232.95 C297.14,231.54 294.57,230.57 290.47,230.01 ZM 156.53 206.43 C156.51,206.13 156.51,205.82 156.51,205.50 C156.51,203.18 157.07,200.51 158.06,197.78 C157.01,200.79 156.48,203.77 156.53,206.43 ZM 267.00 279.04 C267.00,280.27 266.30,282.27 265.26,284.41 C266.24,282.26 267.00,280.10 267.00,279.04 ZM 291.32 239.24 C292.53,241.36 296.95,241.60 301.10,239.45 C296.90,241.62 292.53,241.38 291.32,239.24 ZM 283.43 66.88 C283.43,66.89 283.44,66.90 283.44,66.91 C283.78,67.45 284.51,70.39 285.08,73.46 C284.52,70.46 283.79,67.55 283.43,66.88 ZM 267.75 277.15 C267.24,277.30 267.00,277.93 267.00,279.04 C267.00,277.90 267.21,277.27 267.75,277.15 ZM 164.10 187.11 C164.45,186.68 164.81,186.27 165.17,185.87 C165.69,185.31 166.19,184.76 166.69,184.22 C166.04,184.93 165.53,185.50 165.17,185.88 C164.80,186.28 164.45,186.69 164.10,187.11 ZM 298.82 235.20 C298.81,235.22 298.81,235.25 298.81,235.27 C298.59,236.76 297.95,237.58 297.09,237.69 C297.95,237.58 298.59,236.74 298.81,235.23 C298.81,235.22 298.81,235.21 298.82,235.20 Z" fill="rgb(234,200,171)"/>
<path d="M 0.00 250.00 L 0.00 0.00 L 250.00 0.00 L 500.00 0.00 L 500.00 250.00 L 500.00 500.00 L 250.00 500.00 L 0.00 500.00 L 0.00 250.00 ZM 239.93 445.40 C255.88,440.53 274.13,432.21 301.00,417.56 C315.37,409.72 335.94,400.89 369.00,388.35 C376.98,385.32 383.93,382.43 384.45,381.92 C386.35,380.07 382.98,378.67 374.79,377.91 C355.38,376.10 347.04,374.26 346.96,371.77 C346.87,369.38 338.51,361.32 333.81,359.10 C328.18,356.44 318.20,346.08 315.31,339.91 C314.17,337.49 310.69,325.15 307.57,312.50 C304.45,299.85 301.52,288.38 301.05,287.00 C300.58,285.62 299.19,280.67 297.96,276.00 C296.73,271.33 293.11,262.10 289.93,255.50 C286.74,248.90 283.24,240.27 282.15,236.32 L 280.16 229.13 L 287.33 229.68 C295.56,230.32 299.27,232.11 298.81,235.23 C298.41,237.98 296.64,238.50 294.62,236.48 C292.75,234.61 291.00,235.32 291.00,237.95 C291.00,241.23 296.17,242.00 301.10,239.45 C303.82,238.04 304.08,237.48 303.80,233.70 C303.51,229.62 303.31,229.40 296.68,225.92 C292.94,223.95 288.26,220.72 286.28,218.75 C283.28,215.75 282.68,214.43 282.60,210.66 C282.48,205.48 283.61,203.74 285.44,206.25 C287.25,208.72 291.56,208.46 293.44,205.78 C295.81,202.40 295.37,200.54 291.00,195.50 C288.80,192.96 287.00,190.52 287.00,190.07 C287.00,189.63 287.97,188.04 289.16,186.53 C290.44,184.90 291.50,181.80 291.78,178.92 L 292.25 174.06 L 298.08 174.67 C307.75,175.68 312.53,172.29 311.83,164.94 C311.57,162.27 310.91,161.33 308.77,160.58 C305.62,159.48 303.67,160.68 306.26,162.12 C308.41,163.33 308.53,167.31 306.47,169.03 C304.33,170.80 297.48,168.67 295.47,165.59 C293.77,163.00 293.97,162.21 298.69,152.47 C306.12,137.15 305.37,127.88 295.64,114.73 C293.86,112.32 293.40,109.91 292.88,100.39 C292.32,89.89 292.01,88.53 289.19,83.99 C287.49,81.27 285.65,76.53 285.08,73.46 C284.51,70.39 283.78,67.45 283.44,66.91 C282.75,65.78 267.28,58.03 258.58,54.44 C252.20,51.81 248.29,51.46 241.69,52.93 C239.39,53.45 233.90,54.38 229.50,55.01 C225.10,55.64 219.48,56.57 217.00,57.08 C214.52,57.58 199.72,60.48 184.10,63.51 C151.04,69.94 146.03,71.26 141.99,74.66 C138.08,77.95 138.14,80.53 142.44,92.73 C152.77,122.13 155.69,127.87 166.48,140.00 C170.15,144.12 174.40,149.30 175.92,151.50 C179.12,156.13 182.11,163.74 181.69,166.19 C181.44,167.67 176.68,173.34 165.17,185.87 C160.17,191.33 156.52,199.59 156.51,205.50 C156.50,211.46 158.84,215.23 164.03,217.59 C167.00,218.94 168.01,220.32 170.45,226.34 C172.05,230.28 174.57,236.21 176.05,239.51 C177.54,242.82 179.45,247.54 180.28,250.01 C181.12,252.48 182.96,257.42 184.36,261.00 C189.38,273.80 191.80,288.42 190.56,298.40 C189.94,303.29 189.12,304.72 182.05,313.16 C174.71,321.92 169.67,327.38 152.47,345.21 C141.28,356.82 133.09,367.74 126.01,380.50 C124.17,383.80 121.25,388.52 119.51,391.00 C112.96,400.30 112.57,406.17 118.10,412.46 C122.41,417.37 126.45,418.39 138.33,417.57 C153.03,416.56 157.48,415.49 168.00,410.39 C180.00,404.59 201.06,397.73 202.50,399.17 C202.79,399.46 202.58,402.81 202.01,406.60 C198.99,427.10 198.91,427.97 199.94,431.79 C201.26,436.67 207.04,442.58 213.50,445.62 C220.37,448.86 228.80,448.79 239.93,445.40 ZM 249.01 409.10 C248.99,405.94 265.98,376.85 278.60,358.45 C290.22,341.51 291.42,338.29 291.46,323.79 C291.50,312.31 291.53,312.15 293.13,315.29 C299.20,327.23 302.83,340.09 303.93,353.50 C304.37,359.00 305.07,364.29 305.48,365.25 C306.08,366.68 305.70,366.99 303.36,366.96 C299.69,366.90 287.74,365.32 282.26,364.16 C277.49,363.16 277.17,363.38 273.00,370.62 C271.62,373.00 269.01,377.48 267.18,380.58 C265.36,383.67 264.01,386.31 264.18,386.44 C264.36,386.58 271.25,385.25 279.50,383.49 C308.53,377.31 310.44,377.09 313.56,379.50 C315.48,380.98 315.48,381.02 313.50,382.23 C309.68,384.58 291.65,388.88 275.00,391.40 C260.35,393.61 259.60,393.79 258.68,395.23 C258.22,395.93 255.86,399.65 253.44,403.50 C251.01,407.35 249.02,409.87 249.01,409.10 ZM 160.87 405.16 C162.87,403.05 166.03,399.20 167.90,396.61 C171.91,391.06 175.90,387.93 194.01,376.09 C209.96,365.67 210.01,365.62 220.06,346.29 C223.69,339.31 226.78,335.10 232.57,329.26 C240.70,321.06 241.02,322.90 232.96,331.47 C227.66,337.10 218.58,352.88 214.51,363.50 C213.04,367.35 211.46,371.46 211.00,372.62 C210.31,374.37 209.12,374.82 204.32,375.17 C199.45,375.52 197.42,376.32 192.00,380.00 C180.65,387.69 176.71,390.99 167.94,400.10 C163.23,405.00 158.90,409.00 158.31,409.00 C157.72,409.00 158.87,407.27 160.87,405.16 ZM 286.58 304.25 C286.16,303.84 283.69,299.00 281.09,293.50 C277.92,286.81 275.13,282.43 272.65,280.25 C268.34,276.48 267.00,276.20 267.00,279.04 C267.00,281.39 263.27,289.15 261.62,290.23 C259.33,291.74 259.23,290.89 261.21,286.79 C262.33,284.48 263.47,280.95 263.74,278.94 C264.22,275.29 264.22,275.28 254.36,268.65 C248.94,265.01 243.55,261.21 242.40,260.22 C237.28,255.83 236.83,244.14 241.46,235.86 C244.83,229.82 245.30,225.02 242.91,221.09 C241.86,219.37 241.00,217.44 241.00,216.82 C241.00,215.17 244.91,218.94 247.42,223.00 C250.56,228.09 258.42,245.46 261.00,253.00 C263.96,261.65 267.97,269.54 274.43,279.38 C282.18,291.19 290.42,308.05 286.58,304.25 ZM 173.73 212.68 C172.94,210.69 174.72,202.29 176.11,201.43 C176.59,201.14 176.71,201.60 176.38,202.46 C176.05,203.31 175.48,206.38 175.12,209.26 C174.66,212.89 174.23,213.94 173.73,212.68 ZM 286.10 205.09 C284.21,203.89 285.53,200.76 287.75,201.19 C289.81,201.58 290.80,206.01 288.82,205.98 C288.09,205.98 286.87,205.57 286.10,205.09 ZM 201.03 162.99 C201.01,162.71 201.43,161.00 201.94,159.19 C202.83,156.10 202.75,155.94 200.69,156.50 C199.04,156.95 199.46,156.26 202.37,153.70 C205.72,150.76 206.25,149.70 206.35,145.85 C206.44,142.05 205.76,140.42 201.75,134.80 C199.17,131.18 194.08,125.85 190.45,122.96 C182.84,116.91 177.48,110.05 172.35,99.85 C168.00,91.16 167.22,92.07 184.85,85.19 C209.89,75.43 244.00,65.39 244.00,67.79 C244.00,68.98 223.13,90.10 219.26,92.84 C217.02,94.41 214.42,98.34 210.86,105.50 C206.09,115.10 205.80,116.09 206.94,118.86 C209.37,124.71 228.25,130.74 240.95,129.72 C246.53,129.27 247.20,129.38 245.64,130.52 C242.30,132.96 236.79,133.12 227.50,131.05 C222.55,129.95 217.48,129.03 216.23,129.02 C213.57,129.00 212.51,131.22 210.40,141.25 C208.60,149.76 205.45,158.25 202.98,161.21 C201.93,162.47 201.05,163.27 201.03,162.99 Z" fill="rgb(254,254,254)"/>
</g>
</svg>